# xmcd
#
# Track frame offsets:
#	150
#	21796
#	43587
#	66163
#	84985
#	103194
#	123548
#	145499
#	162823
#	182282
#	204041
#	227932
#	251466
#	281979
#	308378
#	330647
#
# Disc length: 4721 seconds
#
# Revision: 1
# Processed by: cddbd v1.5.1PL0 Copyright (c) Steve Scherf et al.
# Submitted via: CDex 1.50Beta5
#
DISCID=d6126f10
DTITLE=浜田麻里 - 浜田麻里 GREATEST HITS
DYEAR=2000
DGENRE=Rock
TTITLE0=Blue Revolution
TTITLE1=Misty Lady
TTITLE2=Paradise
TTITLE3=Magic(Adventurous Heart)
TTITLE4=Forever
TTITLE5=Return to Myself
TTITLE6=Heart and Soul
TTITLE7=Precious Summer
TTITLE8=Nostalgia
TTITLE9=Anti-Heroine
TTITLE10=Cry For The Moon
TTITLE11=Paradox
TTITLE12=Antique
TTITLE13=Hey Mr.Broken Heart
TTITLE14=Until the Dawn
TTITLE15=Millenia
EXTD=
EXTT0=
EXTT1=
EXTT2=
EXTT3=
EXTT4=
EXTT5=
EXTT6=
EXTT7=
EXTT8=
EXTT9=
EXTT10=
EXTT11=
EXTT12=
EXTT13=
EXTT14=
EXTT15=
PLAYORDER=
